<?xml version="1.0" encoding="utf-8"?>
<!-- Generator: Adobe Illustrator 26.0.1, SVG Export Plug-In . SVG Version: 6.00 Build 0)  -->
<svg version="1.1" id="图层_1" xmlns="http://www.w3.org/2000/svg" xmlns:xlink="http://www.w3.org/1999/xlink" x="0px" y="0px"
	 viewBox="0 0 96.2 96.4" style="enable-background:new 0 0 96.2 96.4;" xml:space="preserve">
<style type="text/css">
	.st0{fill:#FFFFFF;}
</style>
<g transform="translate(0.000000,965.000000) scale(0.100000,-0.100000)">
	<path class="st0" d="M0,8865.2c0-33,26.8-59.8,59.8-59.8h422.8h421.7c33.7,0,61,27.3,61,61v302.9v302.9c0,33.7-27.3,61-61,61H482.6
		H61c-33.7,0-61-27.3-61-61v-302.9V8865.2z M855.8,9465.6c-21.5-22.1-35.2-35.9-259.2-260.8c-82.3-82.6-86.4-86.6-91.6-89.2
		c-13.8-6.8-32.7-6-44.9,1.9c-3.8,2.3-39.8,38.6-224.7,225.8c-53.3,53.9-102.3,103.5-109,110.3l-10.2,10.2c-0.7,0.7-0.2,2,0.8,2
		h368.1C689.2,9465.9,856,9465.8,855.8,9465.6z M189.6,9293.9c66.7-67.4,121.3-122.9,121.3-123.1c0-0.5-236.6-242.8-241.8-247.6l0,0
		c-0.7-0.7-2-0.2-2,0.9v245.2c0,124,0.2,227.4,0.5,245c0,1,1.3,1.5,2,0.8C79.9,9404.8,130,9354.2,189.6,9293.9z M898.1,9166.9
		c0-123.3-0.2-224.3-0.6-241.8c0-1-1.3-1.5-2-0.8c-10.2,10.2-60,61.1-119.1,121.6l-119.6,122.5c-0.4,0.5-0.4,1.2,0,1.6l57.5,57.6
		c148.4,148.9,183.5,184.1,183.6,184.1S898.1,9301.5,898.1,9166.9z M417,9065.4c21-15.3,44.5-22.5,71-21.5
		c17.9,0.6,33.1,4.4,47.6,11.8c13.3,6.8,18.1,10.9,46.5,38.9l25.9,25.7c0.5,0.5,1.2,0.5,1.7,0L730.1,8997l119.3-122.1
		c0.7-0.7,0.2-2-0.8-2l-365.4-0.2c-188.6-0.1-345.3,0-366.1,0.1c-1,0-1.5,1.2-0.9,1.9c1.4,1.5,3.6,3.8,6.1,6.4
		c4.2,4.4,59.2,60.6,122,124.9l113.4,116c0.5,0.5,1.2,0.5,1.7,0l25.6-25.8C400,9081.1,413.8,9067.8,417,9065.4z"/>
</g>
</svg>
