<?xml version="1.0" encoding="utf-8"?>
<!-- Generator: Adobe Illustrator 26.0.1, SVG Export Plug-In . SVG Version: 6.00 Build 0)  -->
<svg version="1.1" id="Layer_1" xmlns="http://www.w3.org/2000/svg" xmlns:xlink="http://www.w3.org/1999/xlink" x="0px" y="0px"
	 viewBox="0 0 48 48" style="enable-background:new 0 0 48 48;" xml:space="preserve">
<style type="text/css">
	.st0{fill:#FFFFFF;}
</style>
<g>
	<path class="st0" d="M28.9,32.1c-1.1,1.1-3.4,1.5-5,1.5c-1.6,0-3.9-0.4-5-1.5c-0.3-0.3-0.7-0.3-0.9,0c-0.3,0.3-0.3,0.7,0,0.9
		c1.7,1.7,4.9,1.8,5.9,1.8s4.2-0.1,5.9-1.8c0.3-0.3,0.3-0.6,0.1-0.9C29.6,31.9,29.2,31.9,28.9,32.1z"/>
	<path class="st0" d="M20.9,26.5c0-1.4-1.1-2.5-2.5-2.5c-1.4,0-2.5,1.1-2.5,2.5S17,29,18.4,29C19.8,29,20.9,27.9,20.9,26.5z"/>
	<circle class="st0" cx="29.4" cy="26.5" r="2.5"/>
	<path class="st0" d="M23.9,0.1C10.7,0.1,0,10.8,0,24c0,13.2,10.7,23.9,23.9,23.9c13.2,0,23.9-10.7,23.9-23.9
		C47.8,10.8,37.1,0.1,23.9,0.1z M37.8,27.2c0.1,0.3,0.1,0.7,0.1,1c0,5.4-6.2,9.7-13.9,9.7S10,33.6,10,28.2c0-0.4,0-0.7,0.1-1.1
		C8.9,26.6,8,25.4,8,24c0-1.9,1.6-3.5,3.5-3.5c0.9,0,1.8,0.4,2.4,1c2.4-1.8,5.7-2.8,9.4-3l1.8-8.3c0.1-0.2,0.1-0.3,0.3-0.4
		c0.1-0.1,0.3-0.1,0.5-0.1l5.8,1.2c0.4-0.8,1.2-1.4,2.2-1.4c1.4,0,2.5,1.1,2.5,2.5c0,1.4-1.1,2.5-2.5,2.5c-1.3,0-2.4-1.1-2.5-2.4
		l-5.2-1.1l-1.6,7.5c3.6,0.1,6.9,1.3,9.3,3c0.6-0.6,1.5-1,2.4-1c1.9,0,3.5,1.6,3.5,3.5C39.8,25.4,38.9,26.7,37.8,27.2z"/>
</g>
</svg>
