<?xml version="1.0" encoding="utf-8"?>
<!-- Generator: Adobe Illustrator 26.0.1, SVG Export Plug-In . SVG Version: 6.00 Build 0)  -->
<svg version="1.1" id="图层_1" xmlns="http://www.w3.org/2000/svg" xmlns:xlink="http://www.w3.org/1999/xlink" x="0px" y="0px"
	 viewBox="0 0 96.2 96.4" style="enable-background:new 0 0 96.2 96.4;" xml:space="preserve">
<style type="text/css">
	.st0{fill:#FFFFFF;}
</style>
<g>
	<path class="st0" d="M48,0C22.7,0,2,19.5,0,44.3L25.8,55c2.2-1.5,4.8-2.4,7.7-2.4c0.3,0,0.5,0,0.8,0L45.7,36c0-0.1,0-0.2,0-0.2
		c0-10,8.2-18.2,18.2-18.2c10,0,18.2,8.2,18.2,18.2c0,10-8.2,18.2-18.2,18.2c-0.1,0-0.3,0-0.4,0L47.1,65.6c0,0.2,0,0.4,0,0.6
		c0,7.5-6.1,13.6-13.6,13.6c-6.6,0-12.1-4.7-13.4-11L1.7,61.3c5.7,20.2,24.3,35,46.4,35c26.6,0,48.2-21.6,48.2-48.2
		C96.2,21.6,74.6,0,48,0z"/>
	<path class="st0" d="M30.2,73.1l-5.9-2.4c1,2.2,2.9,4,5.3,5c5.2,2.2,11.2-0.3,13.4-5.5c1.1-2.5,1.1-5.3,0-7.8c-1-2.5-3-4.5-5.5-5.6
		c-2.5-1-5.2-1-7.5-0.1l6.1,2.5c3.8,1.6,5.7,6,4.1,9.9C38.4,72.9,34,74.7,30.2,73.1z"/>
	<path class="st0" d="M76,35.8c0-6.7-5.4-12.1-12.1-12.1s-12.1,5.4-12.1,12.1s5.4,12.1,12.1,12.1S76,42.4,76,35.8z M54.8,35.7
		c0-5,4.1-9.1,9.1-9.1c5,0,9.1,4.1,9.1,9.1c0,5-4.1,9.1-9.1,9.1C58.9,44.8,54.8,40.8,54.8,35.7z"/>
</g>
</svg>
