<?xml version="1.0" encoding="utf-8"?>
<!-- Generator: Adobe Illustrator 26.0.1, SVG Export Plug-In . SVG Version: 6.00 Build 0)  -->
<svg version="1.1" id="Layer_1" xmlns="http://www.w3.org/2000/svg" xmlns:xlink="http://www.w3.org/1999/xlink" x="0px" y="0px"
	 viewBox="0 0 48 48" style="enable-background:new 0 0 48 48;" xml:space="preserve">
<style type="text/css">
	.st0{fill:#FFFFFF;}
</style>
<g id="Logo_1_">
	<path id="white_background" class="st0" d="M42.9,14.3c0,0.4,0,0.8,0,1.3c0,12.9-9.9,27.9-27.9,27.9v0c-5.3,0-10.5-1.5-15-4.4
		c0.8,0.1,1.6,0.1,2.3,0.1c4.4,0,8.7-1.5,12.2-4.2c-4.2-0.1-7.9-2.8-9.2-6.8c1.5,0.3,3,0.2,4.4-0.2C5.2,27,1.9,23,1.9,18.4
		c0,0,0-0.1,0-0.1c1.4,0.8,2.9,1.2,4.4,1.2c-4.3-2.9-5.6-8.6-3-13.1c5,6.1,12.3,9.8,20.2,10.2c-0.8-3.4,0.3-7,2.8-9.4
		c3.9-3.7,10.2-3.5,13.9,0.4c2.2-0.4,4.3-1.2,6.2-2.4c-0.7,2.3-2.3,4.2-4.3,5.4c1.9-0.2,3.8-0.7,5.6-1.5
		C46.4,11.2,44.8,12.9,42.9,14.3z"/>
</g>
</svg>
