<?xml version="1.0" encoding="utf-8"?>
<!-- Generator: Adobe Illustrator 26.0.1, SVG Export Plug-In . SVG Version: 6.00 Build 0)  -->
<svg version="1.1" id="Layer_1" xmlns="http://www.w3.org/2000/svg" xmlns:xlink="http://www.w3.org/1999/xlink" x="0px" y="0px"
	 viewBox="0 0 500 500" style="enable-background:new 0 0 500 500;" xml:space="preserve">
<style type="text/css">
	.st0{fill:#FFFFFF;}
</style>
<path class="st0" d="M486,131.4c-5.7-21.2-22.4-37.9-43.5-43.5C404,77.6,250,77.6,250,77.6s-154,0-192.4,10.3
	c-21.2,5.7-37.9,22.4-43.5,43.5C3.7,169.9,3.7,250,3.7,250s0,80.1,10.3,118.6c5.7,21.2,22.4,37.9,43.5,43.5
	C96,422.4,250,422.4,250,422.4s154,0,192.4-10.3c21.2-5.7,37.9-22.4,43.5-43.5c10.3-38.4,10.3-118.6,10.3-118.6
	S496.3,169.9,486,131.4z M200.7,323.9V176.1l128,73.9L200.7,323.9z"/>
</svg>
